<svg width="312" height="453" viewBox="0 0 312 453" fill="none" xmlns="http://www.w3.org/2000/svg">
<ellipse cx="156" cy="151" rx="156" ry="151" fill="white"/>
<path d="M83.0306 140L78.5106 109.04V108.8H85.0706L88.7906 134.72H89.7506L94.2306 108.8H105.351L109.871 134.72H110.831L114.511 108.8H120.671V109.04L116.151 140H104.551L100.071 114.08H99.1106L94.6306 140H83.0306ZM121.304 140V139.76L130.704 108.8H141.224L150.664 139.76V140H143.784L136.224 114H135.264L127.624 140H121.304ZM129.104 132.2L130.504 127.16H140.984L142.384 132.2H129.104ZM157.44 140V114.08H148.2V108.8H173.4V114.08H164.16V140H157.44ZM188.074 140.6C183.54 140.6 180.02 139.173 177.514 136.32C175.034 133.467 173.794 129.493 173.794 124.4C173.794 119.36 175.02 115.4 177.474 112.52C179.927 109.64 183.447 108.2 188.034 108.2C190.78 108.2 193.127 108.72 195.074 109.76C197.02 110.773 198.54 112.187 199.634 114C200.727 115.813 201.367 117.893 201.554 120.24H194.874C194.66 118.053 193.954 116.347 192.754 115.12C191.554 113.867 189.994 113.24 188.074 113.24C185.647 113.24 183.82 114.213 182.594 116.16C181.367 118.107 180.754 120.867 180.754 124.44C180.754 128.147 181.38 130.933 182.634 132.8C183.914 134.64 185.714 135.56 188.034 135.56C190.034 135.56 191.62 134.92 192.794 133.64C193.994 132.36 194.687 130.667 194.874 128.56H201.554C201.367 130.907 200.727 132.987 199.634 134.8C198.54 136.613 197.02 138.04 195.074 139.08C193.154 140.093 190.82 140.6 188.074 140.6ZM204.837 140V108.8H211.557V120.68H224.837V108.8H231.557V140H224.837V126.12H211.557V140H204.837ZM106.048 200V168.8H119.288C121.954 168.8 124.114 169.187 125.768 169.96C127.448 170.707 128.674 171.747 129.448 173.08C130.248 174.387 130.648 175.907 130.648 177.64C130.648 179.613 130.128 181.32 129.088 182.76C128.048 184.2 126.514 185.227 124.488 185.84L131.488 199.76V200H124.368L118.008 186.8H112.688V200H106.048ZM112.688 181.92H118.328C120.061 181.92 121.408 181.627 122.368 181.04C123.354 180.453 123.848 179.4 123.848 177.88C123.848 176.333 123.354 175.28 122.368 174.72C121.381 174.133 120.034 173.84 118.328 173.84H112.688V181.92ZM135.251 200V168.8H156.531V174.08H141.891V180.96H153.171V185.84H141.891V194.72H156.771V200H135.251ZM161.642 200V168.8H182.922V174.08H168.282V180.96H179.562V185.84H168.282V194.72H183.162V200H161.642ZM188.032 200V168.8H194.752V194.72H207.792V200H188.032Z" fill="black"/>
<path d="M50.5646 380V354H60.7646C64.009 354 66.3535 354.589 67.7979 355.767C69.2424 356.944 69.9646 358.533 69.9646 360.533C69.9646 361.822 69.6535 362.867 69.0313 363.667C68.409 364.467 67.4646 365.056 66.1979 365.433V366.233C67.8868 366.611 69.1646 367.278 70.0313 368.233C70.9201 369.189 71.3646 370.578 71.3646 372.4C71.3646 374.689 70.609 376.533 69.0979 377.933C67.609 379.311 65.1424 380 61.6979 380H50.5646ZM55.8979 376H60.9646C62.6535 376 63.8757 375.667 64.6313 375C65.3868 374.311 65.7646 373.378 65.7646 372.2C65.7646 370.889 65.3424 369.933 64.4979 369.333C63.6535 368.711 62.4757 368.4 60.9646 368.4H55.8979V376ZM55.8979 364.467H60.3646C61.6313 364.467 62.6313 364.211 63.3646 363.7C64.1201 363.167 64.4979 362.344 64.4979 361.233C64.4979 359.078 63.1201 358 60.3646 358H55.8979V364.467ZM72.6339 380V379.8L80.4672 354H89.2339L97.1005 379.8V380H91.3672L85.0672 358.333H84.2672L77.9005 380H72.6339ZM79.1339 373.5L80.3005 369.3H89.0339L90.2005 373.5H79.1339ZM109.116 380.5C107.093 380.5 105.382 380.233 103.982 379.7C102.605 379.144 101.482 378.422 100.616 377.533C99.7712 376.644 99.1378 375.678 98.7156 374.633C98.3156 373.567 98.0823 372.522 98.0156 371.5H103.216C103.26 372.3 103.505 373.067 103.949 373.8C104.393 374.533 105.06 375.133 105.949 375.6C106.838 376.067 107.949 376.3 109.282 376.3C110.727 376.3 111.793 376.011 112.482 375.433C113.193 374.833 113.549 374.056 113.549 373.1C113.549 372.189 113.238 371.444 112.616 370.867C112.016 370.289 111.216 369.833 110.216 369.5L106.449 368.233C105.249 367.833 104.093 367.344 102.982 366.767C101.893 366.167 100.993 365.389 100.282 364.433C99.5712 363.456 99.2156 362.211 99.2156 360.7C99.2156 359.144 99.6045 357.833 100.382 356.767C101.182 355.7 102.271 354.889 103.649 354.333C105.049 353.778 106.649 353.5 108.449 353.5C110.76 353.5 112.582 353.889 113.916 354.667C115.249 355.444 116.216 356.433 116.816 357.633C117.438 358.811 117.816 360.044 117.949 361.333H112.749C112.705 360.711 112.527 360.122 112.216 359.567C111.927 358.989 111.46 358.522 110.816 358.167C110.171 357.811 109.305 357.633 108.216 357.633C106.993 357.633 106.082 357.889 105.482 358.4C104.905 358.911 104.616 359.556 104.616 360.333C104.616 361.178 104.916 361.856 105.516 362.367C106.138 362.878 106.96 363.311 107.982 363.667L111.749 364.933C112.971 365.333 114.127 365.833 115.216 366.433C116.305 367.033 117.193 367.833 117.882 368.833C118.593 369.811 118.949 371.1 118.949 372.7C118.949 375.122 118.082 377.033 116.349 378.433C114.638 379.811 112.227 380.5 109.116 380.5ZM122.869 380V354H128.469V380H122.869ZM143.9 380.5C140.122 380.5 137.189 379.311 135.1 376.933C133.033 374.556 132 371.244 132 367C132 362.8 133.022 359.5 135.067 357.1C137.111 354.7 140.044 353.5 143.867 353.5C146.156 353.5 148.111 353.933 149.733 354.8C151.356 355.644 152.622 356.822 153.533 358.333C154.444 359.844 154.978 361.578 155.133 363.533H149.567C149.389 361.711 148.8 360.289 147.8 359.267C146.8 358.222 145.5 357.7 143.9 357.7C141.878 357.7 140.356 358.511 139.333 360.133C138.311 361.756 137.8 364.056 137.8 367.033C137.8 370.122 138.322 372.444 139.367 374C140.433 375.533 141.933 376.3 143.867 376.3C145.533 376.3 146.856 375.767 147.833 374.7C148.833 373.633 149.411 372.222 149.567 370.467H155.133C154.978 372.422 154.444 374.156 153.533 375.667C152.622 377.178 151.356 378.367 149.733 379.233C148.133 380.078 146.189 380.5 143.9 380.5ZM156.2 383.333V383.133L165.4 353.333H169.8V353.533L160.6 383.333H156.2ZM172.518 380V354H181.784C186.407 354 189.762 355.144 191.851 357.433C193.94 359.7 194.984 362.889 194.984 367C194.984 371.111 193.94 374.311 191.851 376.6C189.762 378.867 186.407 380 181.784 380H172.518ZM178.118 375.667H181.451C183.162 375.667 184.584 375.411 185.718 374.9C186.873 374.367 187.74 373.478 188.318 372.233C188.895 370.967 189.184 369.222 189.184 367C189.184 364.778 188.895 363.044 188.318 361.8C187.74 360.533 186.873 359.644 185.718 359.133C184.584 358.6 183.162 358.333 181.451 358.333H178.118V375.667ZM198.533 380V354H216.267V358.4H204.067V364.133H213.467V368.2H204.067V375.6H216.467V380H198.533ZM220.526 380V354H231.392C234.726 354 237.159 354.711 238.692 356.133C240.226 357.533 240.992 359.422 240.992 361.8C240.992 364.178 240.226 366.078 238.692 367.5C237.181 368.922 234.748 369.633 231.392 369.633H226.059V380H220.526ZM226.059 365.433H230.559C232.07 365.433 233.248 365.178 234.092 364.667C234.959 364.133 235.392 363.189 235.392 361.833C235.392 360.5 234.959 359.567 234.092 359.033C233.248 358.478 232.07 358.2 230.559 358.2H226.059V365.433ZM249.661 380V358.4H241.961V354H262.961V358.4H255.261V380H249.661Z" fill="white"/>
</svg>
